<?xml version="1.0" encoding="utf-8"?>
<!-- Generator: Adobe Illustrator 25.3.1, SVG Export Plug-In . SVG Version: 6.00 Build 0)  -->
<svg version="1.1" id="Layer_1" xmlns="http://www.w3.org/2000/svg" xmlns:xlink="http://www.w3.org/1999/xlink" x="0px" y="0px"
	 viewBox="0 0 799 169" style="enable-background:new 0 0 799 169;" xml:space="preserve">
<style type="text/css">
	.st0{fill:#008181;}
</style>
<g>
	<circle class="st0" cx="80.4" cy="136" r="8.1"/>
	<circle class="st0" cx="53.5" cy="113.9" r="7.2"/>
	<circle class="st0" cx="80.4" cy="111.4" r="8.1"/>
	<circle class="st0" cx="31.8" cy="88.1" r="6.3"/>
	<circle class="st0" cx="53.5" cy="88.1" r="7.2"/>
	<circle class="st0" cx="80.4" cy="86.8" r="8.1"/>
	<circle class="st0" cx="53.5" cy="62.4" r="7.2"/>
	<circle class="st0" cx="80.4" cy="62.1" r="8.1"/>
	<circle class="st0" cx="80.4" cy="37.4" r="8.1"/>
	<circle class="st0" cx="106.7" cy="137.9" r="8.4"/>
	<circle class="st0" cx="106.7" cy="112.4" r="8.4"/>
	<circle class="st0" cx="106.7" cy="86.8" r="8.4"/>
	<circle class="st0" cx="133.4" cy="86.8" r="8.4"/>
	<circle class="st0" cx="160" cy="86.8" r="8.4"/>
	<circle class="st0" cx="186.6" cy="86.8" r="8.4"/>
	<circle class="st0" cx="106.7" cy="61.2" r="8.4"/>
	<circle class="st0" cx="106.7" cy="35.6" r="8.4"/>
	<circle class="st0" cx="239.6" cy="135.4" r="8.1"/>
	<circle class="st0" cx="266.5" cy="113.1" r="7.2"/>
	<circle class="st0" cx="239.6" cy="110.8" r="8.1"/>
	<circle class="st0" cx="288.2" cy="87.4" r="6.3"/>
	<circle class="st0" cx="266.5" cy="87.4" r="7.2"/>
	<circle class="st0" cx="239.6" cy="86" r="8.1"/>
	<circle class="st0" cx="266.5" cy="61.8" r="7.2"/>
	<circle class="st0" cx="239.6" cy="61.4" r="8.1"/>
	<circle class="st0" cx="239.6" cy="36.8" r="8.1"/>
	<circle class="st0" cx="213.3" cy="137.1" r="8.4"/>
	<circle class="st0" cx="213.3" cy="111.6" r="8.4"/>
	<circle class="st0" cx="213.3" cy="86" r="8.4"/>
	<circle class="st0" cx="213.3" cy="60.4" r="8.4"/>
	<circle class="st0" cx="213.3" cy="34.9" r="8.4"/>
</g>
<g>
	<path d="M512.9,75.2c-4.1-3.9-8.8-5.1-14.3-5.1c-6.8,0-10.5,2.1-10.5,5.7c0,3.7,3.4,5.8,10.8,6.3c10.9,0.7,24.7,3.2,24.7,18.5
		c0,10.2-8.3,18.9-24.8,18.9c-9.1,0-18.2-1.5-26.6-10.3l7-10.2c4.1,4.6,13.4,7.9,19.9,8.1c5.4,0.1,10.4-2.7,10.4-6.9
		c0-4-3.3-5.6-11.5-6.1c-10.9-0.8-23.8-4.8-23.8-17.9c0-13.3,13.8-18,24.3-18c9,0,15.8,1.8,22.4,7.6L512.9,75.2z"/>
	<path d="M543.9,45.6c0,11.1-16.8,11.1-16.8,0C527.1,34.5,543.9,34.5,543.9,45.6z M528.3,61.6v57.9h14.3V61.6H528.3z"/>
	<path d="M588.6,75.2c-4.1-3.9-8.8-5.1-14.3-5.1c-6.8,0-10.5,2.1-10.5,5.7c0,3.7,3.4,5.8,10.8,6.3c10.9,0.7,24.7,3.2,24.7,18.5
		c0,10.2-8.3,18.9-24.8,18.9c-9.1,0-18.2-1.5-26.6-10.3l7-10.2c4.1,4.6,13.4,7.9,19.9,8.1c5.4,0.1,10.4-2.7,10.4-6.9
		c0-4-3.3-5.6-11.5-6.1c-10.9-0.8-23.8-4.8-23.8-17.9c0-13.3,13.8-18,24.3-18c9,0,15.8,1.8,22.4,7.6L588.6,75.2z"/>
	<path d="M664,89.4c0,16.6-11.3,30-30,30s-29.9-13.4-29.9-30c0-16.5,11.5-30,29.8-30C652.2,59.4,664,72.9,664,89.4z M618.3,89.4
		c0,8.8,5.3,16.9,15.7,16.9s15.7-8.2,15.7-16.9c0-8.6-6.1-17.1-15.7-17.1C623.7,72.3,618.3,80.7,618.3,89.4z"/>
	<path d="M685.7,111.1c0,11.1-16.8,11.1-16.8,0S685.7,100,685.7,111.1z"/>
	<path d="M770.5,45.6c0,11.1-16.8,11.1-16.8,0S770.5,34.5,770.5,45.6z M755,61.6v57.8h14.3V61.5H755V61.6z"/>
	<path d="M378,61c-7.5,0-14.1,2.3-19.3,10.5c-5.1-8.2-11.8-10.5-19.3-10.5C323,61,315,71.1,315,88.3v31.1h14.3v-31
		c0-7.6,3.2-14,10.9-14s12.5,6.7,12.5,14.3v30.9h6.1h6.1V88.7c0-7.6,4.8-14.3,12.5-14.3s10.9,6.4,10.9,14v31.1h14.3V88.4
		C402.5,71.1,394.4,61,378,61z"/>
	<path d="M467.3,89.4c0-16.5-11.8-30-30.2-30c-18.3,0-29.8,13.6-29.8,30c0,16.6,11.2,30,29.9,30c5.9,0,11.1-1.3,15.4-3.7v3.7H467
		V93.5l0,0C467.2,92.2,467.3,90.8,467.3,89.4z M437.2,106.3c-10.4,0-15.7-8.2-15.7-16.9c0-8.6,5.4-17.1,15.7-17.1
		c9.6,0,15.7,8.4,15.7,17.1C452.9,98.2,447.6,106.3,437.2,106.3z"/>
	<path d="M750.5,89.4c0-16.5-11.8-30-30.2-30c-18.3,0-29.8,13.6-29.8,30c0,16.6,11.2,30,29.9,30c5.9,0,11.1-1.3,15.4-3.7v3.7h14.4
		V93.5l0,0C750.3,92.2,750.5,90.8,750.5,89.4z M720.4,106.3c-10.4,0-15.7-8.2-15.7-16.9c0-8.6,5.4-17.1,15.7-17.1
		c9.6,0,15.7,8.4,15.7,17.1C736.1,98.1,730.8,106.3,720.4,106.3z"/>
</g>
</svg>
